<svg width="40" height="40" viewBox="0 0 40 40" fill="none" xmlns="http://www.w3.org/2000/svg">
<g clip-path="url(#clip0_11_8)">
<path d="M31.1243 39.9785L8.91377 39.9996C4.02746 40.004 0.0262444 36.0106 0.0206917 31.1243L-0.000408285 8.91377C-0.00485038 4.02746 3.9886 0.0262367 8.87491 0.0206841L31.0854 -0.000415914C35.9717 -0.00485801 39.9729 3.98859 39.9785 8.8749L39.9996 31.0854C40.0051 35.9728 36.0106 39.974 31.1243 39.9785Z" fill="url(#paint0_radial_11_8)"/>
<path d="M31.1243 39.9785L8.91377 39.9996C4.02746 40.004 0.0262444 36.0106 0.0206917 31.1243L-0.000408285 8.91377C-0.00485038 4.02746 3.9886 0.0262367 8.87491 0.0206841L31.0854 -0.000415914C35.9717 -0.00485801 39.9729 3.98859 39.9785 8.8749L39.9996 31.0854C40.0051 35.9728 36.0106 39.974 31.1243 39.9785Z" fill="url(#paint1_radial_11_8)"/>
<path d="M20 23.7692C17.9221 23.7692 16.2308 22.0785 16.2308 20C16.2308 17.9215 17.9221 16.2308 20 16.2308C22.0779 16.2308 23.7692 17.9215 23.7692 20C23.7692 22.0785 22.0779 23.7692 20 23.7692ZM20 17.3077C18.5155 17.3077 17.3077 18.5155 17.3077 20C17.3077 21.4845 18.5155 22.6923 20 22.6923C21.4845 22.6923 22.6923 21.4845 22.6923 20C22.6923 18.5155 21.4845 17.3077 20 17.3077Z" fill="white"/>
<path d="M24.0385 16.7692C24.4845 16.7692 24.8462 16.4076 24.8462 15.9615C24.8462 15.5155 24.4845 15.1538 24.0385 15.1538C23.5924 15.1538 23.2308 15.5155 23.2308 15.9615C23.2308 16.4076 23.5924 16.7692 24.0385 16.7692Z" fill="white"/>
<path d="M23.2308 27H16.7692C14.6913 27 13 25.3092 13 23.2308V16.7692C13 14.6908 14.6913 13 16.7692 13H23.2308C25.3087 13 27 14.6908 27 16.7692V23.2308C27 25.3092 25.3087 27 23.2308 27ZM16.7692 14.0769C15.2847 14.0769 14.0769 15.2847 14.0769 16.7692V23.2308C14.0769 24.7153 15.2847 25.9231 16.7692 25.9231H23.2308C24.7153 25.9231 25.9231 24.7153 25.9231 23.2308V16.7692C25.9231 15.2847 24.7153 14.0769 23.2308 14.0769H16.7692Z" fill="white"/>
</g>
<defs>
<radialGradient id="paint0_radial_11_8" cx="0" cy="0" r="1" gradientUnits="userSpaceOnUse" gradientTransform="translate(14.8695 40.0285) scale(49.8614 49.8615)">
<stop stop-color="#FFDD55"/>
<stop offset="0.328" stop-color="#FF543F"/>
<stop offset="0.348" stop-color="#FC5245"/>
<stop offset="0.504" stop-color="#E64771"/>
<stop offset="0.643" stop-color="#D53E91"/>
<stop offset="0.761" stop-color="#CC39A4"/>
<stop offset="0.841" stop-color="#C837AB"/>
</radialGradient>
<radialGradient id="paint1_radial_11_8" cx="0" cy="0" r="1" gradientUnits="userSpaceOnUse" gradientTransform="translate(6.43619 -0.499816) scale(33.1081 22.0599)">
<stop stop-color="#4168C9"/>
<stop offset="0.999" stop-color="#4168C9" stop-opacity="0"/>
</radialGradient>
<clipPath id="clip0_11_8">
<rect width="40" height="40" fill="white"/>
</clipPath>
</defs>
</svg>
