<svg width="40" height="40" viewBox="0 0 40 40" fill="none" xmlns="http://www.w3.org/2000/svg">
<path d="M40 0H0V40H40V0Z" fill="#FCE819"/>
<path d="M23.5604 10.7445L22.6327 12.7756C23.6038 13.5536 24.2882 14.6645 24.3916 16.0466C24.5829 18.6029 22.7826 20.8201 20.3691 21.0007C17.9555 21.1813 15.7711 19.2623 15.5798 16.706C15.5539 16.3593 15.5579 16.0615 15.6035 15.7327L13.6598 17.1472C13.9175 20.591 16.8634 23.4199 20.5296 23.1456C24.0604 22.8814 26.6965 19.6348 26.4167 15.8951C26.2545 13.7271 25.1501 11.8714 23.5604 10.7445Z" fill="#4A4A4A"/>
<path d="M17.8333 27.3333C16.8216 27.3333 16 28.1535 16 29.1667C16 30.1798 16.8216 31 17.8333 31C18.845 31 19.6667 30.1798 19.6667 29.1667C19.6667 28.1535 18.845 27.3333 17.8333 27.3333ZM17.8333 30.1209C17.3303 30.1209 16.9222 29.692 16.9222 29.1613C16.9222 28.6306 17.3303 28.2018 17.8333 28.2018C18.3364 28.2018 18.7444 28.6306 18.7444 29.1613C18.7444 29.692 18.3364 30.1209 17.8333 30.1209Z" fill="#4A4A4A"/>
<path d="M23.1667 27.3333C22.155 27.3333 21.3333 28.1535 21.3333 29.1667C21.3333 30.1798 22.155 31 23.1667 31C24.1783 31 25 30.1798 25 29.1667C25 28.1535 24.1783 27.3333 23.1667 27.3333ZM23.1667 30.1209C22.6636 30.1209 22.2556 29.692 22.2556 29.1613C22.2556 28.6306 22.6636 28.2018 23.1667 28.2018C23.6697 28.2018 24.0777 28.6306 24.0777 29.1613C24.0777 29.692 23.6697 30.1209 23.1667 30.1209Z" fill="#4A4A4A"/>
<path d="M28.9032 27.0004C28.205 27.0004 27.8108 27.4004 27.8108 27.4004L27.7207 27.0959H27V30.994H27.9234C27.9234 30.994 27.9234 29.6389 27.9234 28.8092C27.9234 27.9794 28.7624 27.9734 28.7624 27.9734C29.3986 27.9734 29.4268 28.6957 29.4268 28.6957V31H30.3333V28.5047C30.2264 26.9347 28.9032 27.0004 28.9032 27.0004Z" fill="#4A4A4A"/>
<path d="M12.5698 27.0004C11.8716 27.0004 11.4775 27.4004 11.4775 27.4004L11.3874 27.0959H10.6667V30.994H11.5901C11.5901 30.994 11.5901 29.6389 11.5901 28.8092C11.5901 27.9794 12.429 27.9734 12.429 27.9734C13.0653 27.9734 13.0935 28.6957 13.0935 28.6957V31H14V28.5047C13.8874 26.9347 12.5698 27.0004 12.5698 27.0004Z" fill="#4A4A4A"/>
<path d="M20.3163 12.0248L21.2353 9.92177C21.2353 9.92177 20.268 9.4068 18.5276 9.8713L17.3746 12.5601C17.3707 12.5652 18.44 11.659 20.3163 12.0248Z" fill="#4A4A4A"/>
</svg>
