<svg width="40" height="40" viewBox="0 0 40 40" fill="none" xmlns="http://www.w3.org/2000/svg">
<path d="M0 0H40V40H0V0Z" fill="#E23744"/>
<path d="M11.8102 18.5338L11.7877 19.3548L9.90147 21.6825C10.6894 21.6825 11.189 21.6737 11.4771 21.6556C11.3936 22.0974 11.3257 22.4584 11.2573 22.9999C10.8784 22.9635 10.2878 22.9545 9.69668 22.9545C9.0379 22.9545 8.46206 22.9635 8 22.9999L8.01536 22.1695L9.90147 19.8512C9.07579 19.8512 8.7727 19.86 8.43198 19.869C8.50749 19.454 8.56061 18.994 8.6136 18.5338C9.21197 18.5608 9.44684 18.5697 10.2271 18.5697C10.9468 18.5697 11.3556 18.5608 11.8102 18.5338ZM13.9541 18.2899C12.7267 18.2899 11.7877 19.535 11.7877 21.0241C11.7877 22.1427 12.3558 22.9999 13.4616 22.9999C14.6964 22.9999 15.6282 21.7546 15.6282 20.2567C15.6282 19.1475 15.075 18.2899 13.9541 18.2899ZM13.5828 21.8031C13.3101 21.8031 13.1511 21.523 13.1511 20.9727C13.1511 20.1516 13.4465 19.4932 13.8103 19.4932C14.0752 19.4932 14.2343 19.7641 14.2343 20.3231C14.2342 21.1351 13.9466 21.8031 13.5828 21.8031ZM31.3038 18.2281C30.0606 18.2281 29.1092 19.4896 29.1092 20.9975C29.1092 22.1313 29.6846 22.9999 30.8051 22.9999C32.056 22.9999 33 21.7382 33 20.221C33 19.0968 32.44 18.2281 31.3038 18.2281ZM30.9043 21.7983C30.6314 21.7983 30.4726 21.5183 30.4726 20.968C30.4726 20.1469 30.7681 19.4886 31.1317 19.4886C31.3965 19.4886 31.5559 19.7592 31.5559 20.3184C31.5558 21.1307 31.2679 21.7983 30.9043 21.7983ZM21.9985 19.9141C22.0971 19.1475 22.0441 18.4526 21.2943 18.4526C20.7488 18.4526 20.158 18.976 19.7414 19.8512C19.8324 19.1291 19.7791 18.4526 19.0369 18.4526C18.4764 18.4526 17.8704 19.0029 17.4536 19.9141C17.5597 19.3186 17.5371 18.6418 17.5067 18.4976C17.075 18.5789 16.6964 18.6238 16.166 18.6418C16.1812 19.057 16.1584 19.598 16.0902 20.1126L15.916 21.4658C15.8478 21.9983 15.772 22.6119 15.6963 22.9999H17.1052C17.1129 22.765 17.166 22.3952 17.2038 22.0705L17.325 21.1414C17.4234 20.5365 17.8474 19.8241 18.1732 19.8241C18.3626 19.8241 18.3552 20.0315 18.3021 20.4195L18.1656 21.4658C18.0973 21.9983 18.0218 22.6119 17.9459 22.9999H19.3699C19.3776 22.765 19.423 22.3952 19.4608 22.0705L19.5819 21.1414C19.6804 20.5365 20.1049 19.8241 20.4303 19.8241C20.6199 19.8241 20.6125 20.0223 20.5819 20.2932L20.2417 22.9999H21.5414L21.9985 19.9141ZM28.8036 21.5833L28.6521 22.6481C28.4172 22.7923 27.9778 23 27.4703 23C26.6067 23 26.4327 22.4766 26.5688 21.3669L26.7886 19.5804H26.3637L26.4837 18.424L26.9477 18.3985L27.122 17.5594L28.4322 17L28.2656 18.3985H29.1671C29.1369 18.5428 29.0305 19.3371 29.0007 19.5804H28.1215L27.9245 21.2315C27.8716 21.6556 27.902 21.809 28.1593 21.809C28.3491 21.8088 28.6291 21.6825 28.8036 21.5833ZM23.8332 22.1584C24.3101 22.0913 24.6383 21.5694 24.7172 21.0487L24.7305 20.9091C24.5256 20.8571 24.2294 20.8175 23.9422 20.8574C23.6686 20.8953 23.4411 21.0243 23.3187 21.2111C23.2264 21.3453 23.18 21.5058 23.2006 21.6972C23.2317 21.984 23.511 22.203 23.8332 22.1584ZM23.4273 22.9831C22.7542 23.077 22.3109 22.7737 22.1778 22.0838C22.0943 21.6497 22.2102 21.1551 22.4129 20.8601C22.6844 20.4742 23.1268 20.2264 23.6667 20.1516C24.1011 20.0905 24.4673 20.1206 24.8097 20.1942L24.8239 20.1276C24.8336 20.021 24.8435 19.9146 24.8298 19.7872C24.7943 19.4601 24.5671 19.2653 24.0061 19.3436C23.6276 19.3964 23.2675 19.5516 22.9879 19.7282L22.7159 18.7951C23.0949 18.5481 23.5726 18.3601 24.1192 18.2838C25.1635 18.1384 25.8973 18.5165 25.9913 19.3856C26.0162 19.6167 26.0192 19.8617 25.9935 20.084C25.8594 21.1586 25.7735 21.9673 25.7359 22.5093C25.7297 22.5932 25.7303 22.7374 25.7369 22.9418L24.441 22.9404C24.4686 22.8557 24.4933 22.7409 24.5153 22.5968C24.5299 22.502 24.5403 22.3825 24.5468 22.2376C24.273 22.6643 23.8965 22.9177 23.4273 22.9831Z" fill="white"/>
</svg>
